<?xml version="1.0" encoding="utf-8"?>
<!-- Generator: Adobe Illustrator 19.2.1, SVG Export Plug-In . SVG Version: 6.00 Build 0)  -->
<svg version="1.1" id="Layer_1" xmlns="http://www.w3.org/2000/svg" xmlns:xlink="http://www.w3.org/1999/xlink" x="0px" y="0px"
	 viewBox="0 0 344 150" style="enable-background:new 0 0 344 150;" xml:space="preserve">
<style type="text/css">
	.st0{fill:#CF0A2C;}
	.st1{fill-rule:evenodd;clip-rule:evenodd;fill:#CF0A2C;}
</style>
<g>
	<path class="st0" d="M16.6,125.7c-0.1-1.8-1.5-2.9-3.8-2.9c-3.2,0-3.8,3.8-3.8,6.8c0,2.9,0.6,6.4,3.8,6.4c2.4,0,3.7-1,3.8-3h5.9
		c0.1,5.1-4.8,6.9-9.7,6.9c-6.3,0-9.7-3.8-9.7-10.6c0-6.8,3.4-10.4,9.7-10.5c4.9,0,9.8,1.7,9.7,6.8H16.6z"/>
	<path class="st0" d="M41.2,132.6c0,5.2-3.8,7.4-8.2,7.4s-8.2-2.3-8.2-7.4c0-5.2,3.8-7.4,8.2-7.4S41.2,127.4,41.2,132.6z M33,136.9
		c2.2,0,2.7-2.4,2.7-4.4c0-2-0.5-4.4-2.7-4.4c-2.2,0-2.7,2.4-2.7,4.4C30.3,134.5,30.8,136.9,33,136.9z"/>
	<path class="st0" d="M44.3,139.6v-20.2h5.3v20.2H44.3z"/>
	<path class="st0" d="M53.7,139.6v-20.2H59v20.2H53.7z"/>
	<path class="st0" d="M66.9,133.6c0,1.8,0.4,3.4,2.4,3.4c1.5,0,2.4-0.7,2.6-2h4.9c-0.2,1.8-1.3,3.1-2.7,3.9
		c-1.2,0.8-2.8,1.1-4.5,1.1c-5.6,0-7.9-2.4-7.9-7.9c0-4.5,3.3-7,7.6-7c5.7,0,7.5,3.3,7.5,8.5H66.9z M72,130.8c0-0.8-0.2-1.5-0.6-2.1
		c-0.4-0.6-1-1-1.8-0.9c-1.8,0.1-2.3,1.4-2.4,3H72z"/>
	<path class="st0" d="M95.3,137.6c-0.1,2.4-0.3,4-2,5.5c-1.4,1.4-4.3,2-6.1,2c-3.1,0-7.2-0.8-7.2-4.8h5c0,0.7,0.3,1.1,0.7,1.4
		c0.4,0.3,1,0.4,1.5,0.4c2.4,0,2.8-1.5,2.8-3.6v-1.6h-0.1c-0.9,1.6-2.8,2.2-4.6,2.2c-4,0-6.2-3.2-6.2-7c0-4.1,2.4-7,6.4-7
		c2,0,3.5,0.8,4.3,2.5H90l0.1-2h5.2V137.6z M87.3,128.2c-2.2,0-2.7,2.2-2.7,3.9c0,1.7,0.5,3.9,2.7,3.9c2.2,0,2.7-2.2,2.7-3.9
		C90,130.4,89.5,128.2,87.3,128.2z"/>
	<path class="st0" d="M102.7,133.6c0,1.8,0.4,3.4,2.4,3.4c1.5,0,2.4-0.7,2.6-2h4.9c-0.2,1.8-1.3,3.1-2.7,3.9
		c-1.2,0.8-2.8,1.1-4.5,1.1c-5.6,0-7.9-2.4-7.9-7.9c0-4.5,3.3-7,7.6-7c5.7,0,7.5,3.3,7.5,8.5H102.7z M107.8,130.8
		c0-0.8-0.2-1.5-0.6-2.1s-1-1-1.8-0.9c-1.8,0.1-2.3,1.4-2.4,3H107.8z"/>
	<path class="st0" d="M140.7,132.6c0,5.2-3.8,7.4-8.2,7.4s-8.2-2.3-8.2-7.4c0-5.2,3.8-7.4,8.2-7.4S140.7,127.4,140.7,132.6z
		 M132.5,136.9c2.2,0,2.7-2.4,2.7-4.4c0-2-0.5-4.4-2.7-4.4c-2.2,0-2.7,2.4-2.7,4.4C129.8,134.5,130.3,136.9,132.5,136.9z"/>
	<path class="st0" d="M145.1,139.6v-10.7h-2.6v-3.4h2.7c-0.2-4.7,1.1-6.5,5.9-6.5c1,0,1.9,0.1,2.9,0.3v3.3c-0.5-0.1-1-0.3-1.5-0.3
		c-1.8,0-2,1.6-2,3.1h3.3v3.4h-3.3v10.7H145.1z"/>
	<path class="st0" d="M165.6,139.6v-20.2H181v3.9h-9.8v4.2h9v3.9h-9v4.3h9.8v3.9H165.6z"/>
	<path class="st0" d="M189.5,127.1c1.2-1.4,2.6-2,4.4-2c3,0,5.3,2,5.3,5.1v9.4h-5.3v-8.3c-0.1-1.4-0.4-2.9-2-2.9
		c-2.6,0-2.3,2.9-2.3,3.1v8.1h-5.3v-10.4c0-1.3,0-2.1-0.2-3.6h5.4L189.5,127.1z"/>
	<path class="st0" d="M218.2,137.6c-0.1,2.4-0.3,4-2,5.5c-1.4,1.4-4.3,2-6.1,2c-3.1,0-7.2-0.8-7.2-4.8h5c0,0.7,0.3,1.1,0.7,1.4
		c0.4,0.3,1,0.4,1.5,0.4c2.4,0,2.8-1.5,2.8-3.6v-1.6h-0.1c-0.9,1.6-2.8,2.2-4.6,2.2c-4,0-6.2-3.2-6.2-7c0-4.1,2.4-7,6.4-7
		c2,0,3.5,0.8,4.3,2.5h0.1l0.1-2h5.2V137.6z M210.2,128.2c-2.2,0-2.7,2.2-2.7,3.9c0,1.7,0.5,3.9,2.7,3.9c2.2,0,2.7-2.2,2.7-3.9
		C212.9,130.4,212.4,128.2,210.2,128.2z"/>
	<path class="st0" d="M221.6,123.1v-3.8h5.4v3.8H221.6z M221.7,139.6v-14.1h5.3v14.1H221.7z"/>
	<path class="st0" d="M236.1,127.1c1.2-1.4,2.6-2,4.4-2c3,0,5.3,2,5.3,5.1v9.4h-5.3v-8.3c-0.1-1.4-0.4-2.9-2-2.9
		c-2.6,0-2.3,2.9-2.3,3.1v8.1h-5.3v-10.4c0-1.3,0-2.1-0.2-3.6h5.4L236.1,127.1z"/>
	<path class="st0" d="M253.6,133.6c0,1.8,0.4,3.4,2.4,3.4c1.5,0,2.4-0.7,2.6-2h4.9c-0.2,1.8-1.3,3.1-2.7,3.9
		c-1.2,0.8-2.8,1.1-4.5,1.1c-5.6,0-7.9-2.4-7.9-7.9c0-4.5,3.3-7,7.6-7c5.7,0,7.5,3.3,7.5,8.5H253.6z M258.7,130.8
		c0-0.8-0.2-1.5-0.6-2.1s-1-1-1.8-0.9c-1.8,0.1-2.3,1.4-2.4,3H258.7z"/>
	<path class="st0" d="M270.7,133.6c0,1.8,0.4,3.4,2.4,3.4c1.5,0,2.4-0.7,2.6-2h4.9c-0.2,1.8-1.3,3.1-2.7,3.9
		c-1.2,0.8-2.8,1.1-4.5,1.1c-5.6,0-7.9-2.4-7.9-7.9c0-4.5,3.3-7,7.6-7c5.7,0,7.5,3.3,7.5,8.5H270.7z M275.8,130.8
		c0-0.8-0.2-1.5-0.6-2.1c-0.4-0.6-1-1-1.8-0.9c-1.8,0.1-2.3,1.4-2.4,3H275.8z"/>
	<path class="st0" d="M289,128.2L289,128.2c0.7-2.3,2.4-3.1,4.8-3.1v4.5c-0.4,0-0.8,0-1.1,0c-2.8,0-3.7,1.7-3.6,4.4v5.6h-5.3v-10.4
		c0-1.3,0-2.1-0.2-3.6h5.4L289,128.2z"/>
	<path class="st0" d="M296.3,123.1v-3.8h5.4v3.8H296.3z M296.3,139.6v-14.1h5.3v14.1H296.3z"/>
	<path class="st0" d="M310.8,127.1c1.2-1.4,2.6-2,4.4-2c3,0,5.3,2,5.3,5.1v9.4h-5.3v-8.3c-0.1-1.4-0.4-2.9-2-2.9
		c-2.6,0-2.3,2.9-2.3,3.1v8.1h-5.3v-10.4c0-1.3,0-2.1-0.2-3.6h5.4L310.8,127.1z"/>
	<path class="st0" d="M339.5,137.6c-0.1,2.4-0.3,4-2,5.5c-1.4,1.4-4.3,2-6.1,2c-3.1,0-7.2-0.8-7.2-4.8h5c0,0.7,0.3,1.1,0.7,1.4
		c0.4,0.3,1,0.4,1.5,0.4c2.4,0,2.8-1.5,2.8-3.6v-1.6h-0.1c-0.9,1.6-2.8,2.2-4.6,2.2c-4,0-6.2-3.2-6.2-7c0-4.1,2.4-7,6.4-7
		c2,0,3.5,0.8,4.3,2.5h0.1l0.1-2h5.2V137.6z M331.5,128.2c-2.2,0-2.7,2.2-2.7,3.9c0,1.7,0.5,3.9,2.7,3.9c2.2,0,2.7-2.2,2.7-3.9
		C334.2,130.4,333.7,128.2,331.5,128.2z"/>
</g>
<g>
	<g>
		<g>
			<path class="st0" d="M25.4,17.3v15.4c-0.1,12.8-0.1,12.8-4.4,13.6c0.1,1.1,0.1,1.1,0,1.2c0.1-0.1,4.2-0.4,7.4-0.4
				c3.2,0.1,7.3,0.4,7.3,0.4c0-0.1,0-0.1,0-1.2c-4.3-0.8-4.3-0.8-4.2-13.6V17.3c0-12.8,0-12.8,4.2-13.4c0-1.2,0-1.2,0-1.2
				c0,0-4.1,0.2-7.3,0.1c-3.2,0-7.4-0.2-7.4-0.1c0.1,0,0.1,0,0,1.2C25.4,4.6,25.4,4.6,25.4,17.3L25.4,17.3z"/>
			<path class="st0" d="M198,3.8c0-0.1-5.7-1.9-10.3-1.9c-8.6,0-15.3,6.2-15.3,12.7c0,14.7,22.6,10.6,22.6,22
				c0.1,9-12.1,12.5-19.8,6.3c-1.7-1.2-1.9-3.8-2.3-5.5c-1.4,0.1-1.4,0.1-1.3,0l0.4,8.3c0,0.1,6,2.6,12.2,2.6
				c10.8-0.1,16.2-7.3,16.2-14c0.1-14.7-22.8-10.7-22.7-21.9c0.1-8.1,9.7-10.1,16.9-6.1c1.7,0.9,2.5,5.4,2.5,5.4h1.3L198,3.8
				L198,3.8z"/>
			<path class="st0" d="M200.6,17.3l0.6-7c0,0.1,12.6,0.2,15.4,0.3c2.8-0.1,15.6-0.2,15.6-0.3l0.3,7c0,0,0.2,0-1,0
				c-0.9-4.2-2.2-4.9-8.2-4.8c-4-0.1-4.1-0.1-4.1,0v28.4c0,4.5,0.1,5.1,4.1,5.4c0.1,1.2,0.1,1.1,0,1.2c0.1-0.1-4-0.2-6.7-0.3
				c-2.8,0-6.9,0.2-6.8,0.3c-0.1-0.1-0.1,0,0-1.2c4-0.3,4.1-1,4.1-5.4V12.5h-4.1c-5.9-0.1-7.2,0.6-8.3,4.8
				C200.4,17.3,200.6,17.3,200.6,17.3L200.6,17.3z"/>
			<path class="st0" d="M294.7,10.2c-0.1,0,7.6,0.1,11.2,0.1c3.8,0,10.5-0.1,11.5-0.1c0,1.2,0.6,4.9,0.7,6l-0.9,0.3
				c-1.3-3.5-2.6-5-14.3-4.1c0,0,0,14.7,0,14.7c10.8,0,12.3,0.2,12.5-3.8h1c-0.2,3.6-0.4,5.8-0.3,9.3h-0.9
				c-0.2-3.8-1.6-3.6-12.4-3.6v15.9c10.3,0.7,14.6,0.3,16.2-4.7l1,0.3c-0.5,1.8-1.8,6.8-1.9,6.8c0.1,0-12.7-0.2-15-0.3
				c-3.6,0.1-8.7,0.3-8.6,0.3v-1c2.9-0.4,3.3-0.5,3.5-5.2V16.6c-0.1-4.9-1.2-5.1-3.5-5.4V10.2L294.7,10.2z"/>
			<path class="st0" d="M91.3,10.2c0,0,3.5,0.1,6.4,0.1c3-0.1,6.5-0.1,6.4-0.1c0.1,0,0.1,0,0,1c-2.7,0.3-3.8,1.3-3.1,3.5l10.5,25.4
				l9.2-25.4c0.6-2.7,0-3.2-3.6-3.5c0-1.1,0-1,0-1c0,0,2.8,0.1,5.1,0.1c2.3-0.1,5.4-0.1,5.4-0.1c0,0,0,0,0,1
				c-2.6,0.3-3.1,1.3-3.9,3.4l-12.8,33.4h-1.3l-8.7-21.1l-8.9,21.1h-0.1h-0.9L77.3,14.6c-1-2.2-1.3-2.5-4.4-3.4c0-1.1-0.1-1-0.1-1
				c0.1,0,3.5,0.1,6.4,0.1c2.9-0.1,6.5-0.1,6.6-0.1c0,0,0,0,0,1c-3,0.3-3.9,1.3-3.1,3.5l10.1,25.4l6.7-16l-3.6-9.3
				c-1.3-2.7-1.5-2.9-4.5-3.5C91.3,10.1,91.3,10.2,91.3,10.2L91.3,10.2z"/>
			<path class="st0" d="M260.2,17.3l0.6-7c0.1,0.1,12.6,0.2,15.4,0.3c2.8-0.1,15.6-0.2,15.6-0.3l0.3,7c0,0,0.2,0-1,0
				c-0.9-4.2-2.2-4.9-8-4.8c-4.1-0.1-4.2-0.1-4.2,0v28.4c0,4.5,0.2,5.1,4.2,5.4c-0.1,1.2-0.1,1.1,0,1.2c-0.1-0.1-4.1-0.2-6.8-0.3
				c-2.8,0-6.9,0.2-6.8,0.3c0-0.1,0,0,0-1.2c4-0.3,4.2-1,4.2-5.4V12.5h-4.2c-5.9-0.1-7.1,0.6-8.2,4.8
				C260,17.3,260.2,17.3,260.2,17.3L260.2,17.3z"/>
			<path class="st1" d="M37.1,28.8C37.2,18,46,9.7,56.6,9.7C67,9.7,76,18,76,28.8c0,10.9-9,19.1-19.4,19.1
				C46,47.9,37.2,39.7,37.1,28.8L37.1,28.8z M70,28.8c0-12-6.5-17.3-13.4-17.3c-7.1,0-13.5,5.3-13.6,17.3c0,12,6.5,17.3,13.6,17.2
				C63.6,46.1,70,40.9,70,28.8L70,28.8z"/>
			<path class="st1" d="M130.9,10.2c0,0,2.3,0.1,4.7,0.1c2.3-0.1,4.4-0.1,4.4-0.1l12.7,32.9c1.1,2.6,2.6,3,4.4,3.4c0,1.1,0,1,0,1
				c0-0.1-3.5-0.2-6.4-0.3c-2.9,0-6.5,0.2-6.4,0.3c-0.1-0.1-0.1,0.1,0-1c2.3-0.4,3.8-0.4,2.6-3.4l-3.9-10.9h-12.2l-4.2,10.9
				c-1.2,2.9,1.1,3,3.1,3.4c0,1.1,0,1,0,1c0-0.1-2.5-0.2-5-0.3c-2.2,0-4.9,0.2-5,0.3c0-0.1,0,0.2,0-1c2-0.7,2.3-0.7,3.5-3.4
				l12.1-28.4c1-2.7-1.5-2.9-4.2-3.6C130.9,10,130.9,10.2,130.9,10.2L130.9,10.2z M142,29.4l-5-13.7l-5.4,13.7H142L142,29.4z"/>
			<path class="st1" d="M238.9,10.3c0.1,0.1,2.4,0.1,4.8,0.1c2.3,0,4.4-0.1,4.4-0.1l12.5,32.9c1.2,2.6,2.7,3.1,4.5,3.4
				c-0.1,1.1-0.1,1,0,1c-0.1,0-3.5-0.2-6.4-0.1c-2.9-0.1-6.5,0.1-6.6,0.1c0,0,0,0.1,0-1c2.3-0.3,3.9-0.4,2.8-3.4L251,32.3h-12.2
				l-4.4,10.9c-1.1,2.9,1.2,3.1,3.2,3.4c0,1.1,0,1,0,1c0,0-2.6-0.2-5-0.1c-2.3-0.1-5,0.1-5,0.1c0,0-0.1,0.2,0-0.9
				c2-0.9,2.3-0.9,3.5-3.5l12.1-28.4c1-2.7-1.5-2.9-4.4-3.5C239,10.2,239,10.4,238.9,10.3L238.9,10.3z M250,29.6l-4.8-13.7
				l-5.4,13.7H250L250,29.6z"/>
			<path class="st0" d="M114.6,61.2c0-0.1,4.7,0.1,6,0c1.3,0.1,6.7-0.1,6.7-0.1v0.9c-2.9,0.5-3.9,1.3-2.2,5.4l9.8,23.5l9.5-25.5
				c0.4-1.6,0.5-2.5-2.3-3.4v-0.7c0-0.1,4.5,0.1,6.3,0c2.1,0,4.7-0.1,4.8,0v0.7c-3.6,0.1-4.4,0.8-6.1,5.4l-13.1,31.6h-1.2
				c0.1,0-12-29.5-13.1-31.5c-1.8-3.9-1.8-5.1-5-5.5V61.2L114.6,61.2z"/>
			<path class="st0" d="M58.7,61c0.1,0,2.3,0.1,4.7,0.1c2.5,0,3.5-0.1,3.5-0.1l25.4,28.7V67.3c0-4.2-0.8-4.9-4.4-5.4V61
				c-0.1,0,3,0.2,5.4,0.1c2.5,0.1,5.2-0.1,5.2-0.1v0.9c-2.9,1-3.7,1.2-3.6,5.4v31.3l-1.9-0.1L66.5,68.6v22.9c0,3.5,0.5,5,4.2,5.5
				v0.9c-0.1,0.1-3-0.1-5.5-0.1c-2.4,0-5.3,0.2-5.4,0.1V97c3.6-0.6,4.2-2,4.2-5.5V67.3c0-4-2.7-4.7-5.4-5.4V61L58.7,61z"/>
			<path class="st0" d="M287.4,61.2c0.1-0.1,3.4,0.1,6,0c2.5,0.1,6.1-0.1,6.1,0v0.9c-2.3,0.7-3.6,0.8-2,3.4l7.9,12.8l7.3-12.7
				c1-2,1.5-3-2.2-3.6v-0.7c0-0.1,2.5,0.1,4.8,0c2.2,0.1,4.4-0.1,4.4,0v0.7c-2.4,0.6-2.4,1.2-4.1,3.5l-9.5,14.7l0.1,11.5
				c0,4.9,1.2,4.8,4.2,5.4v0.9c0,0.1-3.8-0.1-6.6-0.1c-2.9,0-6.8,0.2-6.8,0.1V97c3.4-0.6,3.9-0.4,3.9-5.4l0.1-11.5l-9.5-14.6
				c-2.2-2.9-2-3-4.2-3.5V61.2L287.4,61.2z"/>
			<path class="st0" d="M244.7,73.1V86c0,10.5,0,10.5-3.5,11.1c0,1,0,1,0,1c0,0,3.5-0.3,6.1-0.3c2.6,0,6,0.3,6,0.3c0,0,0,0,0-1
				c-3.5-0.6-3.5-0.6-3.5-11.1V73.1c0-10.6,0-10.6,3.5-11.1c0-1,0-1,0-1c0,0-3.4,0.1-6,0.1c-2.7,0-6.1-0.1-6.1-0.1c0,0,0,0,0,1
				C244.8,62.6,244.7,62.6,244.7,73.1L244.7,73.1z"/>
			<path class="st0" d="M106,73.1V86c-0.1,10.5,0,10.5-3.5,11.1c0,1,0,1,0,1c0,0,3.4-0.3,6.1-0.3c2.6,0,6,0.3,6,0.3c0,0,0,0,0-1
				c-3.5-0.6-3.5-0.6-3.5-11.1V73.1c0-10.6,0-10.6,3.5-11.1c0-1,0-1,0-1c0,0-3.4,0.1-6,0.1c-2.7,0-6.1-0.1-6.1-0.1c0,0,0,0,0,1
				C106.1,62.6,106,62.6,106,73.1L106,73.1z"/>
			<path class="st0" d="M152.9,61c0,0,7.7,0.1,11.4,0.1c3.7,0,10.5-0.1,11.4-0.1c0.1,1.2,0.7,4.9,0.7,6l-0.7,0.3
				c-1.4-3.5-2.7-5-14.3-4.1c-0.1,0-0.1,14.7,0,14.7c10.8,0,12.2,0.2,12.5-3.8h1c-0.3,3.6-0.4,5.8-0.3,9.3h-1
				c-0.1-3.8-1.5-3.6-12.2-3.6v15.9c10.2,0.7,14.5,0.3,16-4.7l1.2,0.3c-0.5,1.8-1.9,6.8-1.9,6.8c0,0-12.8-0.2-15-0.3
				c-3.7,0.1-8.7,0.2-8.7,0.3v-1c3-0.4,3.4-0.5,3.5-5.2V67.4c0-4.9-0.7-5.3-3.5-5.4V61L152.9,61z"/>
			<path class="st0" d="M254.9,68l0.6-7c0,0,12.6,0.2,15.4,0.1c2.8,0.1,15.6-0.1,15.6-0.1l0.3,7c0-0.1,0.2-0.1-1,0
				c-0.9-4.2-2.2-4.9-8.2-5c-3.9,0-4.1,0-4.1,0v28.6c0,4.4,0.1,5.1,4.1,5.4c0.1,1.1,0.1,1.1,0,1c0.1,0-3.9-0.1-6.7-0.1
				c-2.8,0-6.9,0.2-6.8,0.1c-0.1,0-0.1,0.1,0-1c4-0.3,4.1-1,4.1-5.4V63.1h-4.1c-5.9,0-7.2,0.7-8.3,5C254.7,68,255,68,254.9,68
				L254.9,68z"/>
			<path class="st0" d="M235.1,61.9c0,0-4.7-1.5-8.5-1.5c-7.2,0-12.7,5.1-12.7,10.5c0,12,18.6,8.6,18.7,17.9c0,7.5-10,10.4-16.5,5.2
				c-1.3-1-1.5-3.2-1.7-4.5c-1.2,0-1.2,0-1.2,0l0.4,6.8c0,0,4.9,2.1,10.1,2.2c8.9-0.1,13.4-6.1,13.4-11.7
				c-0.1-12.1-18.9-8.7-18.8-17.9c0-6.6,8-8.3,13.8-5c1.4,0.6,2.1,4.3,2,4.4h1.2L235.1,61.9L235.1,61.9z"/>
			<path class="st1" d="M180.3,61.3c0,0,3.2,0.1,4.7,0.1c1.8-0.1,5.4-0.5,8.2-0.4c6.1,0,13.4,2.4,13.4,9.6c-0.1,7-6.2,7.8-8.6,8.7
				c2.7,2.2,6.7,8.6,8.3,10.9c3.8,6.1,3.7,6.5,7,7v0.9c0,0-2.2-0.2-3.4-0.1c-1.2,0-3.3,0-4.2,0c-2.5-2.8-5-7.4-7-10.3
				c-2.9-4.5-5.5-7.6-9.6-7.3c0,0,0,11.2,0,11.1c0.3,5.1,0.8,5.3,3.5,5.8V98c0,0-2.8,0-6.3,0c-2,0-6,0.1-6,0.1v-0.9
				c2.6-0.3,3.5-1.2,3.5-5.8V67.3c0-4-1.1-4.9-3.5-5.1V61.3L180.3,61.3z M189.1,63.7c3.9-1.5,11.7-1.1,11.9,7.1
				c0.1,8.4-8.5,8.7-11.9,7.9V63.7L189.1,63.7z"/>
			<path class="st0" d="M22.8,61c0,0,3.6,0.2,6.1,0.1c2.6,0,6.2-0.1,6.1-0.1v1c-1.6,0.4-3.6,0.1-3.6,6.1v15.7c0,6.2,1.5,7.6,1.6,7.6
				c-0.1,0.1,2.2,4.4,8.5,4.4c5.7,0.1,8-4.2,8-4.2c0,0,1.3-1.3,1.3-7.4c0.1,0.2,0.1-15.9,0-15.9c0-5.7-0.5-5.6-4.5-6.3v-1
				c0,0,2.2,0.2,5.8,0.1c2.7,0,4.9-0.1,5-0.1c0,0,0,1,0,1c-2.4,0.4-3.8,0.7-3.6,6v17.6c0,6.1-3.2,8.8-3.2,8.7
				c0,0.1-3.4,4.2-10.8,4.2c-7.9-0.1-11.2-5.2-11.2-5.2c0,0-2-2-2-9.5V68.3c0-5.7-0.7-5.9-3.4-6.3V61L22.8,61z"/>
		</g>
	</g>
</g>
</svg>
