<?xml version="1.0" encoding="utf-8"?>
<!-- Generator: Adobe Illustrator 17.1.0, SVG Export Plug-In . SVG Version: 6.00 Build 0)  -->
<!DOCTYPE svg PUBLIC "-//W3C//DTD SVG 1.1//EN" "http://www.w3.org/Graphics/SVG/1.1/DTD/svg11.dtd">
<svg version="1.1" id="Layer_1" xmlns="http://www.w3.org/2000/svg" xmlns:xlink="http://www.w3.org/1999/xlink" x="0px" y="0px"
	 width="410px" height="50px" viewBox="0 0 410 50" enable-background="new 0 0 410 50" xml:space="preserve">
<g>
	<g>
		<polygon fill="#4E2A84" points="0.9,13.8 0.9,14.8 3.4,17.7 3.4,37.3 0,38.3 0,39.4 9.3,39.4 9.3,38.3 6.4,37.5 5.6,36.6 
			5.6,20.2 22,39.6 23.4,39.6 23.4,16.2 26.9,15.2 26.9,14 17.4,14 17.4,15.3 20.4,16.1 21.2,17 21.2,32.6 21.2,32.5 21,32.5 
			5.1,13.8 		"/>
		<path fill="#4E2A84" d="M35.9,39.9c-4.6,0-9-3-9-9.3s4.7-9.4,9-9.4c4.5,0,9.1,2.8,9.1,9.1C45,36.3,40.2,39.9,35.9,39.9z
			 M41.4,30.8c0-4.3-2.3-8-6-8c-3.3,0-5,2.9-5,7.2s2.1,8.1,6,8.1C39.7,38.1,41.4,35.1,41.4,30.8z"/>
		<path fill="#4E2A84" d="M91.4,29c0-4.3-2.4-5.2-5.2-5.2c-2.4,0-3.9,1.8-3.9,1.8v2.8v8.2l0.7,0.9l2.5,0.9v1h-9v-1l2.5-1V18.9
			c0-3.4-0.8-4.3-2.7-4.3v-0.8l5.7-1.9h0.4c0,0-0.2,4-0.2,6.9v5.3c0,0,3.7-3,6.2-3c3.2,0,6.1,1.3,6.1,6v9.5l0.7,0.9l2.5,0.9v1h-9v-1
			l2.5-0.9L91.4,29z"/>
		<path fill="#4E2A84" d="M127.7,29.5c0,5.3,3,7.6,6.5,7.6c2.2,0,4.7-0.9,4.7-0.9l0.4,0.7c-0.9,0.9-3.5,2.9-6.7,2.9
			c-4.4,0-8.3-3.3-8.3-9.3c0-5.5,3.8-9.4,8.5-9.4c3.7,0,6.5,2.2,6.5,6.3c0,1.1-0.2,2-0.2,2L127.7,29.5L127.7,29.5z M133.4,28.1
			c1.8-0.1,2.5-0.4,2.5-2.3c0-1.6-1.2-2.8-3.6-2.8c-2.6,0-4.5,2.3-4.5,5.3L133.4,28.1z"/>
		<path fill="#4E2A84" d="M143.5,39.2c-0.3-0.1-1-0.5-1-1.3l-0.2-3.7h1.7c0.5,2.5,2.2,4.1,4.3,4.1c2.2,0,3.1-1.2,3.1-2.7
			s-1.2-2.2-2.7-3l-2-1c-2.8-1.4-4.2-2.6-4.2-5.3c0-3.5,2.5-5.1,6.4-5.1c2.7,0,4.8,1,4.8,1l-0.5,4.5h-1.6c0-2.8-1.2-3.8-3.5-3.8
			c-1.6,0-3,0.6-3,2.2c0,1.2,0.5,1.8,3.5,3.3l1.7,0.9c3.2,1.6,4,3,4,5.6c0,3.2-3.2,5-6.2,5C146.3,39.9,144.6,39.6,143.5,39.2z"/>
		<path fill="#4E2A84" d="M173.7,29.5c0,5.3,3,7.6,6.5,7.6c2.2,0,4.7-0.9,4.7-0.9l0.4,0.7c-0.9,0.9-3.5,2.9-6.7,2.9
			c-4.4,0-8.3-3.3-8.3-9.3c0-5.5,3.8-9.4,8.5-9.4c3.7,0,6.5,2.2,6.5,6.3c0,1.1-0.2,2-0.2,2L173.7,29.5L173.7,29.5z M179.4,28.1
			c1.8-0.1,2.5-0.4,2.5-2.3c0-1.6-1.2-2.8-3.6-2.8c-2.6,0-4.5,2.3-4.5,5.3L179.4,28.1z"/>
		<path fill="#4E2A84" d="M221.1,37.6l-0.7-0.9V27c0-4.5-2.9-5.8-5.9-5.8c-2.5,0-6.1,3-6.1,3c0-1.6,0.1-3.1,0.1-3.1h-0.3l-5.6,2V24
			c2.2,0,2.7,1.9,2.7,5.4v8.1l-2.5,1v1h8.8l0.1-1l-2.5-0.9l-0.7-0.9v-11c0,0,1.3-1.8,3.8-1.8s5.1,0.9,5.1,5.2l-0.1,8.5l-2.5,0.9v1
			h8.8l0.1-1L221.1,37.6z"/>
		<path fill="#4E2A84" d="M114.3,39.6l-4.1-11.4l-4.7,11.4h-1.6l-4.6-14.1c-0.7-1.8-1-2.8-2.3-2.8v-1.1h7.6v1.1l-2.3,0.8l3.5,11.7
			l3-7.3l0.7-1.9l-1-3l-1.3-0.3v-1.1h7.3v1.2l-2.3,0.7l3.8,11.7l4.1-11.6l-2.6-0.9v-1h6.9v1.1c-1.6,0.2-2.3,0.6-3.6,3.8l-4.6,13.2
			C116.2,39.6,114.3,39.6,114.3,39.6z"/>
		<path fill="#4E2A84" d="M74.4,36.8c0,0-1.1,0.7-2.7,0.7c-1.7,0-3.3-1-3.3-3.3L68.6,24h5.7l0,0h0.1l0.1-0.6l0,0l0.4-3.2l-0.7-0.1
			l-0.6,1.2l-0.3,0.3l-4.5,0.2l0,0l0,0v-4.6l-2.2,0.4l-1,4.3l-3.2,0.3v1.5c1.7,0,3.2,0.2,3.2,1.8s-0.2,6.8-0.2,8.9
			c0,3.9,1.5,5.4,4,5.4c2.2,0,3.9-0.9,5.5-2.2L74.4,36.8z"/>
		<path fill="#4E2A84" d="M168.6,36.8c0,0-1.1,0.7-2.7,0.7c-1.7,0-3.3-1-3.3-3.3l0.2-10.1h5.7l0,0l0,0l0.1-0.6l0,0l0.4-3.2l-0.7-0.1
			l-0.6,1.2l-0.3,0.3l-4.5,0.2l0,0l0,0v-4.6l-2.2,0.4l-1,4.3l-3.2,0.3v1.5c1.7,0,3.2,0.2,3.2,1.8c0,1.7-0.2,6.8-0.2,8.9
			c0,3.9,1.5,5.4,4,5.4c2.2,0,3.9-0.9,5.5-2.2L168.6,36.8z"/>
		<path fill="#4E2A84" d="M60.1,21.4L60.1,21.4L60.1,21.4c0,0-0.7-0.2-1.9-0.2c-2.7,0-5.5,4.2-5.5,4.2c0-2.3,0.1-4.3,0.1-4.3h-0.3
			l-5.5,2V24c2.1,0,2.7,1.9,2.7,5.1v8.4l-2.5,1v1H56v-1l-2.5-0.9l-0.7-0.9v-8.2c0-2.5,2-4,4.2-4c0.4,0,0.9,0.1,1.3,0.2l0.6,0.9
			l0.7,0.1L60.1,21.4L60.1,21.4L60.1,21.4z"/>
		<path fill="#4E2A84" d="M200.7,21.4L200.7,21.4L200.7,21.4c0,0-0.7-0.2-1.9-0.2c-2.7,0-5.5,4.2-5.5,4.2c0-2.3,0.1-4.3,0.1-4.3
			h-0.3l-5.5,2V24c2.1,0,2.7,1.9,2.7,5.1v8.4l-2.5,1v1h8.8v-1l-2.5-0.9l-0.7-0.9v-8.2c0-2.5,2-4,4.2-4c0.4,0,0.9,0.1,1.3,0.2
			l0.6,0.9l0.7,0.1L200.7,21.4L200.7,21.4L200.7,21.4z"/>
	</g>
	<g>
		<path fill="#4E2A84" d="M233.2,49.1V0.9h1.3v48.2C234.5,49.1,233.2,49.1,233.2,49.1z"/>
	</g>
	<g>
		<path fill="#4E2A84" d="M244.2,39.4V20.2h12.9v2.2h-10.5v5.9h9.2v2.3h-9.2v6.7h10.5v2.2L244.2,39.4L244.2,39.4z"/>
		<path fill="#4E2A84" d="M271.8,39.4l-9.5-15.5v15.5H260V20.2h2.7l9.5,15.6V20.2h2.3v19.3L271.8,39.4L271.8,39.4z"/>
		<path fill="#4E2A84" d="M291.1,39.4l-0.4-2.3c-1,1.6-3.1,2.7-5.3,2.7c-1.9,0-3.8-0.6-5.2-2c-2-1.9-2.5-4.6-2.5-8
			c0-3.1,0.4-5.9,2.5-7.9c1.4-1.4,3.3-2.1,5.2-2.1c2.2,0,4.2,0.8,5.5,2.2c0.9,1,1.6,2.2,1.7,3.8h-2.5c-0.1-0.9-0.4-1.5-0.9-2.1
			c-0.9-1-2.2-1.5-3.8-1.5c-1.3,0-2.6,0.5-3.5,1.5c-1.6,1.6-1.7,4.2-1.7,6.3c0,1.9,0.1,4.7,1.7,6.3c0.9,1,2.1,1.4,3.5,1.4
			c1.4,0,2.6-0.5,3.5-1.3c1.3-1.3,1.7-3.1,1.7-4.9h-5.2V29h7.3v10.4C292.8,39.4,291.1,39.4,291.1,39.4z"/>
		<path fill="#4E2A84" d="M296.6,39.4V20.2h2.5v19.3L296.6,39.4L296.6,39.4z"/>
		<path fill="#4E2A84" d="M315.1,39.4l-9.5-15.5v15.5h-2.3V20.2h2.7l9.5,15.6V20.2h2.3v19.3L315.1,39.4L315.1,39.4z"/>
		<path fill="#4E2A84" d="M322,39.4V20.2h12.9v2.2h-10.5v5.9h9.2v2.3h-9.2v6.7h10.5v2.2L322,39.4L322,39.4z"/>
		<path fill="#4E2A84" d="M337.7,39.4V20.2h12.9v2.2h-10.5v5.9h9.2v2.3h-9.2v6.7h10.5v2.2L337.7,39.4L337.7,39.4z"/>
		<path fill="#4E2A84" d="M364.9,39.4l-3.6-8H356v8h-2.4V20.2h7.6c2.3,0,3.8,0.6,4.9,1.7c0.9,1,1.5,2.2,1.5,3.9s-0.5,2.8-1.5,3.8
			c-0.6,0.6-1.4,1.1-2.3,1.4l3.9,8.5C367.6,39.4,364.9,39.4,364.9,39.4z M361.1,22.4H356v6.8h5.1c2.3,0,3.9-0.9,3.9-3.4
			S363.4,22.4,361.1,22.4z"/>
		<path fill="#4E2A84" d="M370.6,39.4V20.2h2.5v19.3L370.6,39.4L370.6,39.4z"/>
		<path fill="#4E2A84" d="M389,39.4l-9.5-15.5v15.5h-2.3V20.2h2.7l9.5,15.6V20.2h2.3v19.3L389,39.4L389,39.4z"/>
		<path fill="#4E2A84" d="M408.3,39.4l-0.4-2.3c-1,1.6-3.1,2.7-5.2,2.7c-1.9,0-3.8-0.6-5.2-2c-2-1.9-2.5-4.6-2.5-8
			c0-3.1,0.4-5.9,2.5-7.9c1.4-1.4,3.3-2.1,5.2-2.1c2.2,0,4.2,0.8,5.5,2.2c0.9,1,1.6,2.2,1.7,3.8h-2.5c-0.1-0.9-0.4-1.5-0.9-2.1
			c-0.9-1-2.2-1.5-3.8-1.5c-1.3,0-2.6,0.5-3.5,1.5c-1.6,1.6-1.7,4.2-1.7,6.3c0,1.9,0.1,4.7,1.7,6.3c0.9,1,2.1,1.4,3.5,1.4
			s2.6-0.5,3.5-1.3c1.3-1.3,1.7-3.1,1.7-4.9h-5.2V29h7.3v10.4H408.3z"/>
	</g>
	<g>
		<g>
			<path fill="#4E2A84" d="M250.7,15.3V9.8l-2,5.4h-1l-2-5.5v5.6h-1.4V7.6h1.9l2,5.5l2-5.5h1.8v7.7H250.7L250.7,15.3z"/>
			<path fill="#4E2A84" d="M257.8,14.5c-0.4,0.5-1.1,0.9-1.9,0.9c-0.9,0-1.6-0.4-2-0.9s-0.6-1.2-0.6-2.1c0-0.8,0.2-1.5,0.6-2.1
				c0.4-0.5,1.1-0.9,2-0.9c0.9,0,1.5,0.4,1.9,0.9c0.3,0.3,0.4,0.8,0.4,1.2h-1.3c0-0.2-0.1-0.4-0.2-0.5c-0.2-0.3-0.5-0.4-0.9-0.4
				c-0.4,0-0.6,0.2-0.8,0.3c-0.3,0.4-0.4,0.9-0.4,1.4s0.1,1.1,0.4,1.4c0.2,0.2,0.5,0.4,0.8,0.4c0.4,0,0.7-0.2,0.9-0.4
				c0.1-0.1,0.2-0.3,0.2-0.5h1.3C258.2,13.7,258.1,14.2,257.8,14.5z"/>
			<path fill="#4E2A84" d="M264.5,14.5c-0.6,0.6-1.4,0.9-2.2,0.9c-0.8,0-1.6-0.3-2.2-0.9c-0.8-0.8-1-1.9-1-3.1s0.1-2.3,1-3.1
				c0.6-0.6,1.4-0.9,2.2-0.9c0.8,0,1.6,0.3,2.2,0.9c0.4,0.5,0.7,1.1,0.7,1.7h-1.4c0-0.3-0.2-0.6-0.3-0.8c-0.2-0.3-0.7-0.5-1.2-0.5
				c-0.4,0-0.9,0.2-1.2,0.5c-0.5,0.6-0.5,1.5-0.5,2.2s0,1.7,0.5,2.2c0.3,0.3,0.7,0.5,1.2,0.5s0.9-0.2,1.2-0.5
				c0.2-0.2,0.3-0.5,0.3-0.8h1.4C265.1,13.4,264.9,14.1,264.5,14.5z"/>
			<path fill="#4E2A84" d="M271.4,14.6c-0.6,0.6-1.4,0.9-2.2,0.9c-0.8,0-1.6-0.3-2.2-0.9c-0.8-0.8-1-1.9-1-3.1s0.1-2.3,1-3.1
				c0.6-0.6,1.4-0.9,2.2-0.9c0.8,0,1.6,0.3,2.2,0.9c0.8,0.8,1,1.9,1,3.1S272.2,13.7,271.4,14.6z M270.4,9.2
				c-0.3-0.3-0.8-0.5-1.2-0.5c-0.4,0-0.9,0.2-1.2,0.5c-0.5,0.6-0.6,1.5-0.6,2.2s0,1.7,0.6,2.2c0.3,0.3,0.8,0.5,1.2,0.5
				c0.4,0,0.9-0.2,1.2-0.5c0.5-0.6,0.6-1.5,0.6-2.2S270.9,9.8,270.4,9.2z"/>
			<path fill="#4E2A84" d="M278.1,15.3l-1.3-2.9h-1.7v2.9h-1.4V7.6h3.3c1.8,0,2.7,1.2,2.7,2.4c0,1-0.6,1.8-1.4,2.2l1.4,3.2
				L278.1,15.3L278.1,15.3z M276.9,8.8H275v2.3h1.9c0.8,0,1.3-0.4,1.3-1.1C278.2,9.4,277.7,8.8,276.9,8.8z"/>
			<path fill="#4E2A84" d="M287.1,15.3V9.8l-2,5.4h-1l-2-5.5v5.6h-1.4V7.6h1.9l2,5.5l2-5.5h1.8v7.7H287.1L287.1,15.3z"/>
			<path fill="#4E2A84" d="M290.1,15.3V7.6h1.4v7.7C291.5,15.3,290.1,15.3,290.1,15.3z"/>
			<path fill="#4E2A84" d="M298.1,14.5c-0.6,0.6-1.4,0.9-2.2,0.9s-1.6-0.3-2.2-0.9c-0.8-0.8-1-1.9-1-3.1s0.1-2.3,1-3.1
				c0.6-0.6,1.4-0.9,2.2-0.9c0.8,0,1.6,0.3,2.2,0.9c0.4,0.5,0.7,1.1,0.7,1.7h-1.4c0-0.3-0.2-0.6-0.3-0.8c-0.2-0.3-0.7-0.5-1.2-0.5
				c-0.4,0-0.9,0.2-1.2,0.5c-0.5,0.6-0.5,1.5-0.5,2.2s0,1.7,0.5,2.2c0.3,0.3,0.7,0.5,1.2,0.5s0.9-0.2,1.2-0.5
				c0.2-0.2,0.3-0.5,0.3-0.8h1.4C298.8,13.4,298.5,14.1,298.1,14.5z"/>
			<path fill="#4E2A84" d="M304.8,15.3l-2.1-3.6l-1.3,1.6v2.1H300V7.6h1.4v3.6l3.1-3.6h1.7l-2.5,2.9l2.8,4.8H304.8z"/>
			<path fill="#4E2A84" d="M314.7,14.7c-0.5,0.5-1.4,0.8-2.2,0.8c-0.9,0-1.7-0.3-2.2-0.7c-0.5-0.5-0.8-1.1-0.8-1.8h1
				c0,0.5,0.2,0.9,0.5,1.2s0.9,0.5,1.5,0.5s1.1-0.1,1.4-0.4c0.2-0.2,0.4-0.5,0.4-0.9c0-0.6-0.4-1.1-1.3-1.2l-1.2-0.2
				c-1.2-0.2-2.1-0.8-2.1-2c0-0.6,0.3-1.1,0.7-1.5c0.5-0.5,1.2-0.8,2-0.8s1.5,0.3,2,0.7c0.5,0.4,0.7,1,0.7,1.7h-1
				c0-0.4-0.2-0.7-0.4-1c-0.3-0.3-0.8-0.5-1.4-0.5s-1,0.2-1.4,0.5c-0.2,0.2-0.3,0.5-0.3,0.8c0,0.7,0.6,1,1.2,1.1
				c0.4,0.1,0.9,0.1,1.3,0.2c1.3,0.2,2.1,1,2.1,2.2C315.4,13.8,315.1,14.3,314.7,14.7z"/>
			<path fill="#4E2A84" d="M321.6,14.6c-0.5,0.5-1.2,0.8-2.1,0.8c-0.8,0-1.5-0.3-2.1-0.8c-0.8-0.8-1-1.9-1-3.2c0-1.2,0.1-2.4,1-3.2
				c0.6-0.5,1.3-0.8,2.1-0.8c0.8,0,1.6,0.3,2.1,0.8c0.4,0.5,0.7,1,0.8,1.8h-1c0-0.4-0.2-0.8-0.4-1.1c-0.3-0.3-0.8-0.6-1.4-0.6
				c-0.5,0-1,0.2-1.4,0.6c-0.6,0.7-0.7,1.7-0.7,2.5c0,0.8,0,1.8,0.7,2.5c0.4,0.4,0.9,0.6,1.4,0.6c0.6,0,1.1-0.3,1.4-0.6
				c0.2-0.3,0.4-0.7,0.4-1.1h1C322.3,13.6,322,14.2,321.6,14.6z"/>
			<path fill="#4E2A84" d="M328.4,15.3v-3.6h-3.7v3.6h-1V7.6h1v3.2h3.7V7.6h1v7.7C329.4,15.3,328.4,15.3,328.4,15.3z"/>
			<path fill="#4E2A84" d="M336,14.6c-0.6,0.5-1.3,0.8-2.1,0.8c-0.8,0-1.5-0.3-2.1-0.8c-0.8-0.8-1-1.9-1-3.2c0-1.2,0.2-2.4,1-3.2
				c0.6-0.5,1.3-0.8,2.1-0.8c0.8,0,1.5,0.3,2.1,0.8c0.8,0.8,1,1.9,1,3.2S336.8,13.8,336,14.6z M335.3,8.9c-0.4-0.4-0.9-0.6-1.4-0.6
				s-1,0.2-1.4,0.6c-0.6,0.7-0.7,1.7-0.7,2.5c0,0.8,0,1.8,0.7,2.5c0.4,0.4,0.9,0.6,1.4,0.6s1-0.2,1.4-0.6c0.6-0.7,0.7-1.7,0.7-2.5
				S335.9,9.6,335.3,8.9z"/>
			<path fill="#4E2A84" d="M343.2,14.6c-0.6,0.5-1.3,0.8-2.1,0.8c-0.8,0-1.5-0.3-2.1-0.8c-0.8-0.8-1-1.9-1-3.2c0-1.2,0.2-2.4,1-3.2
				c0.6-0.5,1.3-0.8,2.1-0.8c0.8,0,1.5,0.3,2.1,0.8c0.8,0.8,1,1.9,1,3.2S344.1,13.8,343.2,14.6z M342.6,8.9
				c-0.4-0.4-0.9-0.6-1.4-0.6s-1,0.2-1.4,0.6c-0.6,0.7-0.7,1.7-0.7,2.5c0,0.8,0,1.8,0.7,2.5c0.4,0.4,0.9,0.6,1.4,0.6s1-0.2,1.4-0.6
				c0.6-0.7,0.7-1.7,0.7-2.5C343.2,10.6,343.2,9.6,342.6,8.9z"/>
			<path fill="#4E2A84" d="M345.7,15.3V7.6h1v6.8h3.7v0.9C350.4,15.3,345.7,15.3,345.7,15.3z"/>
			<path fill="#4E2A84" d="M359.1,14.6c-0.6,0.5-1.3,0.8-2.1,0.8c-0.8,0-1.5-0.3-2.1-0.8c-0.8-0.8-1-1.9-1-3.2c0-1.2,0.2-2.4,1-3.2
				c0.6-0.5,1.3-0.8,2.1-0.8c0.8,0,1.5,0.3,2.1,0.8c0.8,0.8,1,1.9,1,3.2S359.9,13.8,359.1,14.6z M358.4,8.9
				c-0.4-0.4-0.9-0.6-1.4-0.6s-1,0.2-1.4,0.6c-0.6,0.7-0.6,1.7-0.6,2.5s0,1.8,0.7,2.5c0.4,0.4,0.9,0.6,1.4,0.6s1-0.2,1.4-0.6
				c0.6-0.7,0.7-1.7,0.7-2.5C359.1,10.6,359.1,9.6,358.4,8.9z"/>
			<path fill="#4E2A84" d="M362.6,8.5V11h3.6v0.9h-3.6v3.4h-1V7.6h5v0.9H362.6z"/>
		</g>
	</g>
</g>
</svg>
